<?xml version="1.0" encoding="UTF-8"?>
<svg id="_レイヤー_1" data-name="レイヤー 1" xmlns="http://www.w3.org/2000/svg" viewBox="0 0 100.33 100">
  <defs>
    <style>
      .cls-1 {
        fill: none;
      }

      .cls-2 {
        fill: #7d6465;
      }
    </style>
  </defs>
  <g>
    <path class="cls-2" d="M50,66.61c-27.57,0-50,12.65-50,28.19,0,.94.76,1.71,1.71,1.71h96.59c.94,0,1.71-.76,1.71-1.71,0-15.54-22.43-28.19-50-28.19ZM3.52,93.1c1.65-12.87,21.87-23.07,46.48-23.07s44.82,10.2,46.48,23.07H3.52Z"/>
    <path class="cls-2" d="M49.46,3.67c-14.43,0-26.18,12.58-26.18,28.04s11.74,28.04,26.18,28.04,26.18-12.58,26.18-28.04S63.89,3.67,49.46,3.67ZM49.46,56.34c-12.55,0-22.76-11.05-22.76-24.63S36.9,7.08,49.46,7.08s22.76,11.05,22.76,24.63-10.21,24.63-22.76,24.63Z"/>
  </g>
  <rect class="cls-1" x=".33" width="100" height="100"/>
</svg>