<?xml version="1.0" encoding="UTF-8"?>
<svg id="_レイヤー_1" data-name="レイヤー 1" xmlns="http://www.w3.org/2000/svg" viewBox="0 0 100.04 100.41">
  <defs>
    <style>
      .cls-1 {
        fill: none;
      }

      .cls-2 {
        fill: #7d6465;
      }
    </style>
  </defs>
  <path class="cls-2" d="M64.63,49.73c6.34-12.77,4.23-28.7-6.4-39.32C51.79,3.96,43.22.41,34.11.41S16.42,3.96,9.98,10.41c-13.3,13.3-13.3,34.95,0,48.26,6.65,6.65,15.39,9.98,24.13,9.98,5.22,0,10.42-1.21,15.19-3.58l32.6,32.6c1.84,1.84,4.25,2.76,6.66,2.76s4.83-.92,6.67-2.76l2-2c3.67-3.67,3.67-9.66,0-13.33l-32.6-32.6ZM12.64,56C.81,44.16.81,24.91,12.64,13.07c5.73-5.73,13.36-8.89,21.46-8.89s15.73,3.16,21.46,8.89c11.83,11.83,11.83,31.07.01,42.91l-.03.03c-11.84,11.82-31.08,11.82-42.91-.01ZM94.56,92.99l-2,2c-2.2,2.2-5.79,2.21-8,0l-31.33-31.33,10-10,31.33,31.33c2.2,2.21,2.2,5.79,0,8Z"/>
  <rect class="cls-1" x=".04" width="100" height="100"/>
</svg>