<?xml version="1.0" encoding="UTF-8"?>
<svg id="_レイヤー_1" data-name="レイヤー 1" xmlns="http://www.w3.org/2000/svg" viewBox="0 0 100 100.41">
  <defs>
    <style>
      .cls-1 {
        fill: none;
      }

      .cls-2 {
        fill: #7d6465;
      }
    </style>
  </defs>
  <g>
    <path class="cls-2" d="M28.32,88.09c-3.4,0-6.16,2.76-6.16,6.16s2.76,6.16,6.16,6.16,6.16-2.76,6.16-6.16-2.76-6.16-6.16-6.16Z"/>
    <path class="cls-2" d="M85.95,88.09c-3.4,0-6.16,2.76-6.16,6.16s2.76,6.16,6.16,6.16,6.16-2.76,6.16-6.16-2.76-6.16-6.16-6.16Z"/>
    <path class="cls-2" d="M94.9,15.01H19.68l-1.22-13.1c-.08-.85-.79-1.5-1.65-1.5H4.36c-.91,0-1.65.74-1.65,1.65s.74,1.65,1.65,1.65h10.95l1.22,13.1,4.21,45.39v18.7c0,.91.74,1.65,1.65,1.65h67.02c.91,0,1.65-.74,1.65-1.65s-.74-1.65-1.65-1.65H24.05v-15.48h66.63c.85,0,1.57-.65,1.65-1.5l4.22-45.46c.04-.46-.11-.92-.42-1.27-.31-.34-.76-.54-1.22-.54ZM89.18,60.47H23.9l-3.91-42.15h73.1l-3.91,42.15Z"/>
  </g>
  <rect class="cls-1" width="100" height="100"/>
</svg>