<?xml version="1.0" encoding="UTF-8"?>
<svg id="_レイヤー_1" data-name="レイヤー 1" xmlns="http://www.w3.org/2000/svg" viewBox="0 0 100 100">
  <defs>
    <style>
      .cls-1 {
        fill: none;
      }

      .cls-2 {
        fill: #7d6465;
      }
    </style>
  </defs>
  <rect class="cls-1" width="100" height="100"/>
  <g>
    <path class="cls-2" d="M92.49,0H22.39c-1,0-1.81.81-1.81,1.81v15.67c0,1,.81,1.81,1.81,1.81h0c1,0,1.81-.81,1.81-1.81V3.61h66.49v92.78H24.2v-17.12c0-1-.81-1.81-1.81-1.81h0c-1,0-1.81.81-1.81,1.81v18.92c0,1,.81,1.81,1.81,1.81h70.1c1,0,1.81-.81,1.81-1.81V1.81c0-1-.81-1.81-1.81-1.81Z"/>
    <path class="cls-2" d="M60.33,48.72l-22.8-22.8c-.71-.71-1.85-.71-2.55,0-.71.71-.71,1.85,0,2.55l19.72,19.72H7.51c-1,0-1.81.81-1.81,1.81s.81,1.81,1.81,1.81h47.19l-19.72,19.72c-.71.71-.71,1.85,0,2.55.35.35.81.53,1.28.53s.92-.18,1.28-.53l22.8-22.8c.17-.17.3-.37.39-.59.18-.44.18-.94,0-1.38-.09-.22-.22-.42-.39-.59Z"/>
  </g>
</svg>