<?xml version="1.0" encoding="UTF-8"?>
<svg id="_レイヤー_1" data-name="レイヤー 1" xmlns="http://www.w3.org/2000/svg" viewBox="0 0 180 70.08">
  <defs>
    <style>
      .cls-1 {
        fill: #7d6465;
      }
    </style>
  </defs>
  <path class="cls-1" d="M118.19,17.23c1.04-1.51,2.59-.94,3.97-2.6.99-1.19.92-2.49.9-3.9,0-.14-.17-.19-.26-.09-1.17,1.32-3.21,1.94-3.99,3.2-.44.72-.82,2.23-.9,3.3-.01.15.19.21.27.09Z"/>
  <path class="cls-1" d="M82.62,37.65c-3.87,0-7.89,2.44-10.3,5.68-.08.08-.17.18-.27.31-1.59,2.06-4.18,4.53-6.64,6.38-.58.29-.45-.24-.45-.28,1.78-3.97,3.15-6.79,4.29-8.37.53-.44,1.07-.89,1.61-1.25.39-.24.58-.51.58-.82,0-.46-.39-.8-.93-.8-.73,0-1.14.57-2.87,2.94-1.09,1.04-2.19,2.24-3.26,3.4-1.66,1.79-3.37,3.64-4.95,4.87-.38.3-.72.46-.94.46s-.29-.2-.29-.38c0-.41.83-1.74,1.38-2.63,1.62-2.61,3.28-5.58,3.28-7.77,0-1.58-.88-2.29-1.75-2.29-1.63,0-3.31,1.97-5.51,4.76l-1.26,1.57c-.06.06-.11.13-.16.21l-.03.04s0,0,0,0c-3.47,4.6-5.61,6.84-6.55,6.84-.22,0-.33-.23-.33-.69,0-1.71,2.45-6.18,3.91-8.69.2-.35.29-.54.29-.71,0-.21-.14-.35-.34-.35-.29,0-1.06.05-1.57.14-.77.15-1.18.77-2.15,2.48-1.44,2.53-5.24,7.38-6.64,7.38-.36,0-.6-.13-.6-.79,0-3.02,4.23-9.81,9.15-10.57.1,0,.94-.04,1.18-.07.16-.02.34-.05.44-.2.08-.11.1-.26.06-.46-.09-.42-.57-.46-.81-.43l-1.04.14c-5.87.68-11.43,6.36-11.43,11.67,0,1.33.81,2.15,2.11,2.15,1.79,0,3.72-1.87,5.06-3.51h0s.39-.44.34,0c0,.01,0,.02,0,.03-.03.28-.06.56-.06.88,0,1.3.67,2.7,2.15,2.7,1.56,0,2.79-1.02,7.91-7.75l1.17-1.44c1.19-1.49,3.41-4.28,4.26-4.28.3,0,.33.36.33.51,0,1.42-1.08,3.27-2.6,5.75-1.43,2.33-2.47,4.01-2.47,5.33,0,1.14.7,1.79,1.93,1.79s2.44-.98,5.88-4.54h0s.5-.29.06.49c0,0,0,0,0,.01-.97,1.68-1.81,3.3-2.51,4.86-.12.25-.25.5-.34.76l-3.89,2.59c-6.07,4.07-11.69,8.35-11.69,12.12,0,1.3,1.04,2.24,2.47,2.24,4.78,0,11.57-7.45,15.8-17.33l.12-.27c2.35-1.63,4.48-3.38,6.28-5.14h0s.37-.2.29.21c0,.01,0,.02,0,.03-.14.6-.22,1.2-.22,1.81,0,1.33.81,2.15,2.11,2.15,1.78,0,3.69-1.85,5.04-3.48h0s.36-.33.34.27c0,0,0,0,0,.02-.02.19-.03.38-.03.58,0,1.3.67,2.7,2.15,2.7,1.19,0,2.2-.58,5.02-4.05.41-.48.62-.79.62-.94,0-.17-.1-.36-.27-.49-.18-.14-.5-.27-1.03-.14-.3.08-.53.25-.67.5-.25.45-.16,1.03-.1,1.26-1.59,1.83-2.7,2.76-3.29,2.76-.22,0-.33-.23-.33-.69,0-1.71,2.01-5.41,3.47-7.92.2-.36.29-.54.29-.71,0-.2-.14-.35-.34-.35-.29,0-1.06.05-1.57.14-.77.15-1.5,1.02-2.46,2.73-1.44,2.53-4.48,6.35-5.88,6.35-.36,0-.6-.13-.6-.79,0-3.32,4.86-10.64,10.05-10.64,1.47,0,2.42.52,2.97,1.63.11.23.3.36.51.36.27,0,.48-.21.48-.48,0-.13-.06-.24-.11-.35-.73-1.46-1.98-2.17-3.81-2.17ZM47.81,69.03c-.86,0-1.42-.47-1.42-1.19,0-3.41,6.07-7.86,11.37-11.35l1.18-.78h0s.83-.39.57.36c-4.1,8.04-8.51,12.96-11.7,12.96Z"/>
  <path class="cls-1" d="M53.14,20.08c0-4.22-1.46-7.84-4.22-10.55-.26-.25-.19-.68.14-.83,1.11-.5,2.18-.7,3.75-.68,3.35.04,6.24,1.34,6.77,1.43.34.05.45.04.53.05.42,0,.65-.31.65-.61,0-.31-.23-.54-.61-.61-.75-.13-3.5-1.54-7.34-1.48-1.36.02-2.95.08-4.88.86-.55.22-1.18.13-1.69-.19-3.48-2.13-8.12-3.25-13.51-3.25C14.48,4.24,4.94,14.57,4.94,24.79c0,4.97,3.19,7.93,8.52,7.93,1.28,0,2.6-.23,4.01-.7.14-.05.27.1.2.23-1.32,2.56-2.33,3.73-4.61,4.41-.41.12-.61.38-.61.65s.18.56.7.56c2.77,0,6.04-2.94,7.59-6.83.13-.26.22-.52.3-.76,6.56-4.22,8.95-10.41,8.95-13.55,0-2.19-1.14-3.5-3.05-3.5-2.75,0-5.46,2.75-6.57,6.69-.64,2.29-.78,3.86-.91,5.38-.12,1.48-.25,3.01-.81,4.7-.05.16-.18.3-.33.37-1.7.76-3.29,1.13-4.85,1.13-3.7,0-5.9-2.32-5.9-6.22,0-11.49,10.58-19.83,25.17-19.83,5.01,0,9.33.99,12.58,2.88.27.16.27.53.01.71-4.2,2.84-8.29,8.55-12.18,17-1.3,2.83-2.58,5.5-3.81,7.95-.13.26-.46.37-.72.23-.86-.46-1.55-1.01-1.97-1.58-.46-.61-1.17-.35-1.17.24,0,.56,1.09,1.65,2.71,2.49.17.09.25.3.16.48-.25.48-.5.95-.75,1.41-.02.04-1.92,3.69-3.31,6.14l-.24.38c-.13.2-.26.41-.39.61-.37.56-1.04.28-1.04.28l.02.02c-1.61-.49-3.39-.85-5.44-1.1C5.49,42.18.53,47.58.05,51.55c-.2,1.68.24,3.17,1.27,4.3,1.03,1.12,2.62,1.84,4.59,2.08.63.08,1.26.12,1.88.12,6,0,11.53-3.54,16.9-10.81.12-.17.36-.23.54-.14,2.96,1.44,4.07,3.2,4.64,4.4.11.31.33.5.59.53.17.02.34-.02.48-.13.13-.1.22-.26.24-.43.02-.16-.03-.3-.07-.42-.93-2.09-2.6-3.74-5.07-5.02-.2-.1-.27-.35-.14-.53,1.06-1.56,2.08-3.21,3.04-4.91l.1-.18c.06-.1,1.44-2.55,1.82-3.33,0,0,.23-.6.99-.46.03,0,.04,0,.07,0,1.11.22,2.31.34,3.67.34,9.69,0,17.56-7.58,17.56-16.89ZM22.21,24.26c.12-1.42.29-3.11.81-5.21.75-3,2.13-4.65,3.88-4.65,1.23,0,1.88.79,1.88,2.28,0,2.43-1.87,7.51-6.81,11.42-.11.09-.27-.02-.24-.16.29-1.3.39-2.51.49-3.69ZM22.26,46.41c-5.44,7.73-10.45,10.89-16.19,10.18h0c-3.21-.39-5-2.26-4.68-4.88.24-1.96,1.67-3.88,3.84-5.14,2.14-1.24,4.91-1.87,8.24-1.87,1.14,0,2.34.07,3.57.22,1.81.22,3.51.55,5.07.99.21.06.29.32.16.5ZM32.12,34.72c1.39-2.68,2.67-5.32,3.9-8.02,3.71-8.32,7.33-13.88,10.78-16.56.29-.23.72-.2.99.05,2.7,2.48,4.13,5.89,4.13,9.9,0,8.64-7.33,15.67-16.35,15.67-1.05,0-2.06-.08-3.07-.25-.36-.06-.55-.47-.38-.79Z"/>
  <path class="cls-1" d="M179.89,39.82c-.73-1.46-1.98-2.17-3.81-2.17-3.88,0-7.89,2.44-10.3,5.68-.08.08-.17.18-.27.31-1.59,2.06-4.18,4.53-6.64,6.38-.51.26-.47-.13-.45-.25,1.77-3.88,3.95-7.97,5.19-9.84.18-.27.39-.51.64-.72.42-.34.84-.68,1.26-.97.39-.24.58-.51.58-.82,0-.46-.39-.74-.93-.8-1.37-.13-1.37.05-2.87,2.94-1.09,1.04-3.38,4.12-4.45,5.28-1.66,1.79-3.37,3.64-4.95,4.87-.38.3-.72.46-.94.46s-.29-.2-.29-.38c0-.41.83-1.74,1.38-2.63,1.62-2.61,3.28-5.58,3.28-7.77,0-1.58-.88-2.29-1.75-2.29-1.63,0-3.31,1.97-5.51,4.76l-1.26,1.57c-.06.06-.11.13-.16.21l-.03.04s0,0,0,0c-3.47,4.6-5.61,6.84-6.55,6.84-.22,0-.33-.23-.33-.69,0-1.71,2.45-6.18,3.91-8.69.2-.35.29-.54.29-.71,0-.21-.14-.35-.34-.35-.29,0-1.06.05-1.57.14-.77.15-1.18.77-2.15,2.48-1.44,2.53-5.24,7.38-6.64,7.38-.36,0-.6-.13-.6-.79,0-3.02,4.23-9.81,9.15-10.57.1,0,.94-.04,1.18-.07.16-.02.34-.05.44-.2.08-.11.1-.26.06-.46-.09-.42-.57-.46-.81-.43l-1.04.14c-5.87.68-11.43,6.36-11.43,11.67,0,1.33.81,2.15,2.11,2.15,1.79,0,3.72-1.87,5.06-3.51h0s.39-.44.34,0c0,.01,0,.02,0,.03-.03.28-.06.56-.06.88,0,1.3.67,2.7,2.15,2.7,1.56,0,2.79-1.02,7.91-7.75l1.17-1.44c1.19-1.49,3.41-4.28,4.26-4.28.3,0,.33.36.33.51,0,1.42-1.08,3.27-2.6,5.75-1.43,2.33-2.47,4.01-2.47,5.33,0,1.14.7,1.79,1.93,1.79s2.44-.98,5.88-4.54h0s.5-.29.06.49c0,0,0,0,0,.01-.97,1.68-1.81,3.3-2.51,4.86-.12.25-.25.5-.34.76l-3.89,2.59c-6.07,4.07-11.69,8.35-11.69,12.12,0,1.3,1.04,2.24,2.47,2.24,4.78,0,11.57-7.45,15.8-17.33l.12-.27c2.35-1.63,4.48-3.38,6.28-5.14h0s.37-.2.29.21c0,.01,0,.02,0,.03-.14.6-.22,1.21-.22,1.81,0,1.33.81,2.15,2.11,2.15,1.78,0,3.69-1.85,5.04-3.48h0s.36-.32.34.28c0,0,0,0,0,.01-.02.19-.03.38-.03.59,0,1.3.67,2.7,2.15,2.7.27,0,.54-.04.81-.13,0,0,0,0,0,0,.03-.01.06-.02.1-.04.45-.15,1.06-.43,1.47-.62,2.39-1.1,3.78-3.4,3.15-5.91-.13-.53-1.16-.76-1.22.17-.16,2.32-1.67,3.57-2.59,4.57,0,0,0,0,0,0-.64.57-1.13.86-1.46.86-.22,0-.33-.23-.33-.69,0-1.71,1.51-3.82,2.97-6.33.2-.36.55-1.6.55-1.77,0-.2-.14-.35-.34-.35-.29,0-1.06.05-1.57.14-.77.15-1.18.77-2.15,2.48-1.44,2.53-4.55,6.08-5.95,6.08-.36,0-.6-.13-.6-.79,0-3.32,4.86-10.64,10.05-10.64,1.47,0,2.42.52,2.97,1.63.11.23.3.36.51.36.27,0,.48-.21.48-.48,0-.13-.06-.24-.11-.35ZM141.27,69.03c-.86,0-1.42-.47-1.42-1.19,0-3.41,6.07-7.86,11.37-11.35l1.18-.78s.83-.39.57.36c-4.1,8.04-8.51,12.96-11.7,12.96Z"/>
  <path class="cls-1" d="M59.25,6.13c.05.03.1,0,.15,0,2.63-.77,4.88-3.14,4.81-5.85,0-.36-.44-.25-.44-.25-1.48.16-2.31.86-3.27,2-.42.5-.79,1.39-1.05,1.99-.24.54-.44,1.4-.26,1.99.02.06.02.12.07.13Z"/>
  <path class="cls-1" d="M62.43,6.99c.02.08.19.08.19.08,3.38.49,6.9-.32,9.66-2.33.05-.04.11-.08.14-.14.09-.19-.16-.34-.34-.45-1.79-1.17-3.24-1.02-4.89-.39-1.56.6-3.22,2.06-4.62,3.08-.08.06-.16.08-.15.15Z"/>
  <path class="cls-1" d="M146.58,20.23c0-2.95-.71-5.61-2.09-7.87,0,0-.23-.45-.69-.54-.16-.03-.4.07-.51.26-.15.24.21,1.02.21,1.02,1.27,2.07,1.86,4.41,1.86,7.13,0,8.64-7.33,15.67-16.35,15.67-1.12,0-2.24-.1-3.33-.3-.26-.05-.39-.34-.27-.57,1.44-2.75,2.8-5.43,4.05-8.19,3.84-8.62,7.59-14.28,11.15-16.83.17-.1.53-.26,1.08-.09.02,0,.03,0,.04,0,2.45.76,4.56,1.26,6.66,1.24,1.48-.01,2.74-.33,3.67-.91.85-.54,1.34-1.28,1.33-2.04-.01-1.15-1.1-2.36-4.12-2.36h-.11c-3.05.03-5.66.7-8.13,2.07-.02,0-.03,0-.05.02-.49.26-1.04.1-1.04.1h0c-5.63-1.93-10.21-3.42-15.8-3.38-14.34.15-24.66,7.94-24.55,18.53.05,4.73,3.07,7.88,7.79,8.25.48.05.96.09,1.43.09,1.26,0,2.5-.21,3.66-.58.04,0,.08-.01.11-.02v-.02c3.16-1.04,5.7-3.32,6.35-6.18.63-2.8-.9-5.46-3.48-6.04-.19-.04-.31-.07-.55-.08-.1,0-.18,0-.27,0h.01s-.51.02-.18-.39c.02-.02.02-.03.03-.04,1.25-1.47,1.78-3.11,1.4-4.56-.07-.25-.18-.47-.31-.62-.36-.41-.87-.39-1.16-.14-.23.2-.3.51-.2.82.53,2.02.16,3.46-1.2,4.68-.38.34-.81.65-1.25.96-.46.21-.9.43-1.3.66l-.67.36c-.7.47-1.27.86-1.65,1.2l-.16.13c-.2.16-.4.32-.46.61-.07.29.04.58.28.79.19.16.5.29.72.2.34-.14.8-.38,1.34-.66,1.67-.88,4.19-2.22,5.98-1.81.56.13,1.15.59,1.55,1.21.47.74.62,1.62.42,2.48-.5,2.23-2.5,4.09-5.06,5.07-1.44.41-2.89.63-4.31.65-4.1.05-6.66-2.13-6.7-5.67-.05-4.97,2.26-9.63,6.51-13.11,4.22-3.46,9.87-5.4,15.91-5.47,5.13-.06,9.14,1.2,14.42,2.99.16.05.19.25.06.35-4.16,2.86-8.21,8.54-12.06,16.91-1.04,2.28-3.06,6.51-3.06,6.51,0,0-.39.8-.69,1.44-.18.37-.45.35-.62.3-.92-.48-1.68-1.06-2.12-1.65-.46-.62-1.17-.35-1.17.24s1.1,1.66,2.74,2.5h-.01s.35.3.18.67c-6.59,13.05-12.24,17.66-21.41,17.91-2.76.07-5.34-.67-7.45-2.16l-.02-.02c-.13-.07-.46-.23-.69-.2-.3.04-.5.29-.5.61,0,.27.3.51.47.62,2.29,1.63,5.11,2.52,7.98,2.52.12,0,.25,0,.37,0,10.84-.29,17.13-5.01,23.77-18.32v.02s.2-.53.96-.4c.02,0,.02,0,.04,0,1.11.23,2.33.35,3.7.35,9.69,0,17.56-7.58,17.56-16.89ZM142.87,8.62c1.86-1,3.85-1.47,6.31-1.49.03,0,.07,0,.1,0,1.95,0,2.84.59,2.85,1.14,0,.35-.33.73-.88,1.03-.49.26-1.39.57-2.85.59-.04,0-.08,0-.12,0-1.52,0-3.21-.29-5.36-.92-.15-.04-.18-.26-.04-.34Z"/>
</svg>